<svg width="93" height="23" viewBox="0 0 93 23" fill="none" xmlns="http://www.w3.org/2000/svg">
<path d="M4.43209 3.25342V19.5764H11.0481V22.663H0.404968V3.25342H4.43209Z" fill="#021135"/>
<path d="M19.879 7.00732C22.4391 7.00732 24.1938 8.17524 25.1431 9.45438V7.25759H29.199V22.6629H25.1431V20.4105C24.1938 21.7453 22.3816 22.9132 19.8503 22.9132C15.8231 22.9132 12.6014 19.7153 12.6014 14.9046C12.6014 10.094 15.8231 7.00732 19.879 7.00732ZM20.9146 10.4276C18.7572 10.4276 16.7149 11.9849 16.7149 14.9046C16.7149 17.8244 18.7572 19.4929 20.9146 19.4929C23.1295 19.4929 25.1431 17.88 25.1431 14.9603C25.1431 12.0405 23.1295 10.4276 20.9146 10.4276Z" fill="#021135"/>
<path d="M44.3006 14.1539C44.3006 11.679 42.8911 10.3442 40.7625 10.3442C38.5763 10.3442 37.1668 11.679 37.1668 14.1539V22.663H33.1397V7.25762H37.1668V9.17633C38.2024 7.86938 39.9283 7.03516 41.9706 7.03516C45.6813 7.03516 48.3277 9.37099 48.3277 13.6255V22.663H44.3006V14.1539Z" fill="#021135"/>
<path d="M58.4243 7.00737C60.5241 7.00737 62.5377 7.95283 63.6308 9.39882V2.08545H67.7154V22.663H63.6308V20.3828C62.6815 21.801 60.8981 22.9133 58.3955 22.9133C54.3396 22.9133 51.1179 19.7154 51.1179 14.9047C51.1179 10.094 54.3396 7.00737 58.4243 7.00737ZM59.431 10.4277C57.2737 10.4277 55.2313 11.9849 55.2313 14.9047C55.2313 17.8245 57.2737 19.4929 59.431 19.4929C61.646 19.4929 63.6595 17.8801 63.6595 14.9603C63.6595 12.0405 61.646 10.4277 59.431 10.4277Z" fill="#021135"/>
<path d="M71.2247 3.14203C71.2247 1.86289 72.2603 0.861816 73.6985 0.861816C75.108 0.861816 76.1723 1.86289 76.1723 3.14203C76.1723 4.42118 75.108 5.42224 73.6985 5.42224C72.2603 5.42224 71.2247 4.42118 71.2247 3.14203ZM71.6562 7.25754H75.6833V22.6629H71.6562V7.25754Z" fill="#021135"/>
<path d="M85.1759 17.8798L82.2706 22.6627H77.9558L83.1623 14.9322L77.8983 7.25732H82.4432L85.6937 12.0124L88.6277 7.25732H92.9425L87.7072 14.9322L93 22.6627H88.4551L85.1759 17.8798Z" fill="#021135"/>
</svg>
