<svg width="52" height="30" viewBox="0 0 52 30" fill="none" xmlns="http://www.w3.org/2000/svg">
<path fill-rule="evenodd" clip-rule="evenodd" d="M36.6386 0.298577C41.0337 1.31846 42.715 3.88846 44.8228 7.42574H36.6386V0.298577ZM10.9533 7.72277C11.8138 7.72277 12.4384 8.13815 12.4384 9.10891C12.4384 9.92768 11.7759 10.5917 10.9575 10.5941H1.98515C1.16484 10.5941 0.5 11.2593 0.5 12.0792C0.5 12.8995 1.16484 13.5644 1.98515 13.5644H15.3515C16.1795 13.5644 16.8424 14.2288 16.8424 15.0495C16.8424 15.8698 16.1776 16.5347 15.3573 16.5347H1.98515C1.16484 16.5347 0.5 17.1995 0.5 18.0198C0.5 18.8401 1.16484 19.505 1.98515 19.505H5.25248V23.9604C5.25248 24.7807 5.91731 25.4455 6.73762 25.4455H9.723C10.2552 28.067 12.5715 30 15.302 30C18.0325 30 20.3488 28.067 20.881 25.4455H35.9606C36.4928 28.067 38.8091 30 41.5396 30C44.2701 30 46.5864 28.067 47.1186 25.4455H49.7079C50.5282 25.4455 51.1931 24.7807 51.1931 23.9604V15.0495C51.1931 10.6919 46.5968 10.4026 46.5926 10.396H35.1535C34.3332 10.396 33.6683 9.7312 33.6683 8.91089V0H6.73762C5.91731 0 5.25248 0.664836 5.25248 1.48515V4.75248H3.4703C2.64998 4.75248 1.98515 5.41731 1.98515 6.23762C1.98515 7.05794 2.64998 7.72277 3.4703 7.72277H10.9533ZM43.4649 22.3817C44.5281 23.4448 44.5281 25.1694 43.4649 26.2326C41.7546 27.9428 38.8168 26.7261 38.8168 24.3069C38.8168 21.8881 41.7546 20.6714 43.4649 22.3817ZM17.2273 22.3817C18.2905 23.4448 18.2905 25.1694 17.2273 26.2326C15.517 27.9428 12.5792 26.7261 12.5792 24.3069C12.5792 21.8881 15.517 20.6714 17.2273 22.3817Z" fill="#ECF1E7"/>
</svg>
